<svg width="1030.002930" height="211.012695" viewBox="0 0 1030 211.013" fill="none" xmlns="http://www.w3.org/2000/svg" xmlns:xlink="http://www.w3.org/1999/xlink">
	<desc>
			Created with Pixso.
	</desc>
	<defs/>
	<circle id="Background" cx="105.500000" cy="105.500000" r="94.500000" fill="#F1F1F1" fill-opacity="1.000000"/>
	<path id="Background" d="M173.296 24.7002C154.954 9.28857 131.3 0 105.5 0C81.5405 0.00927734 57.4502 8.09814 37.7002 24.7026C19.3379 40.0903 6.08301 61.772 1.62695 87.1865C-2.54883 110.777 1.23438 135.906 14.1567 158.239C26.1221 178.995 45.1724 195.813 69.4272 204.615C91.9346 212.824 117.339 213.462 141.577 204.613C164.094 196.435 183.965 180.594 196.845 158.236C208.837 137.496 213.877 112.588 209.373 87.1826C205.228 63.5864 193.078 41.2666 173.296 24.7002ZM40.4121 27.9282C58.0215 13.1323 80.7305 4.21484 105.5 4.21484C128.502 4.22363 151.63 11.9897 170.591 27.9307C188.22 42.7031 200.945 63.519 205.223 87.918C209.232 110.566 205.6 134.691 193.194 156.132C181.707 176.059 163.417 192.205 140.131 200.655C118.523 208.536 94.1343 209.148 70.8647 200.654C49.2466 192.801 30.1694 177.594 17.8042 156.129C6.29102 136.218 1.45264 112.305 5.77734 87.9141C9.75635 65.2607 21.4204 43.8325 40.4121 27.9282Z" fill="#7EB693" fill-opacity="1.000000" fill-rule="evenodd"/>
	<path id="Organic" d="M126.546 124.887Q126.296 125.18 126.296 125.687Q126.296 126.131 126.508 126.419Q126.548 126.473 126.595 126.522Q126.616 126.543 126.639 126.563Q126.942 126.821 127.465 126.821Q127.952 126.821 128.243 126.582Q128.277 126.553 128.309 126.522Q128.367 126.464 128.414 126.398Q128.616 126.115 128.616 125.687Q128.616 125.197 128.376 124.907Q128.344 124.869 128.309 124.834Q128.277 124.803 128.243 124.775Q127.952 124.536 127.465 124.536Q126.942 124.536 126.639 124.794Q126.616 124.813 126.595 124.834Q126.569 124.86 126.546 124.887ZM82.6799 136.384Q84.2227 134.648 84.2227 131.541Q84.2227 128.394 82.6582 126.663Q82.337 126.307 81.961 126.025Q80.5055 124.931 78.2285 124.931Q75.8188 124.931 74.3257 126.101Q74.0162 126.343 73.7461 126.636Q72.1816 128.341 72.1816 131.523Q72.1816 134.705 73.7373 136.436Q74.0203 136.748 74.3472 137.003Q75.8279 138.159 78.2109 138.159Q80.4914 138.159 81.9473 137.063Q82.3263 136.778 82.6494 136.418Q82.6648 136.401 82.6799 136.384ZM75.3721 135.144Q74.4141 133.914 74.4141 131.541Q74.4141 129.176 75.3721 127.955Q75.6196 127.642 75.9277 127.409Q76.8228 126.733 78.2285 126.733Q79.6118 126.733 80.4864 127.4Q80.7955 127.636 81.041 127.955Q81.9902 129.176 81.9902 131.541Q81.9902 133.94 81.0322 135.153Q80.789 135.464 80.4852 135.695Q79.6034 136.366 78.2109 136.366Q76.8182 136.366 75.9315 135.696Q75.6207 135.461 75.3721 135.144ZM92.7217 128.174Q92.3174 128.086 91.6934 128.086Q91.3569 128.086 91.0365 128.158Q90.5033 128.278 90.0146 128.596Q89.8678 128.693 89.7314 128.803Q89.1494 129.271 88.7578 129.976L88.6523 129.976L88.3799 128.262L86.7627 128.262L86.7627 137.983L88.8281 137.983L88.8281 132.903Q88.8281 131.917 89.2735 131.212Q89.4117 130.994 89.5928 130.802Q89.8535 130.53 90.1671 130.349Q90.784 129.994 91.6055 129.994Q92.0801 129.994 92.5195 130.099L92.7217 128.174ZM102.741 129.396L102.741 128.262L99.375 128.262Q99.1465 128.201 98.6895 128.148Q98.2412 128.086 97.8281 128.086Q95.9824 128.086 94.9805 128.957Q94.7364 129.17 94.5523 129.427Q93.9873 130.215 93.9873 131.409Q93.9873 132.268 94.3422 132.94Q94.3939 133.037 94.4531 133.131Q94.769 133.617 95.2095 133.923Q95.4308 134.077 95.6836 134.186Q95.0771 134.555 94.7695 134.933Q94.6904 135.03 94.6316 135.139Q94.4619 135.451 94.4619 135.856Q94.4619 135.948 94.474 136.039Q94.5183 136.371 94.7256 136.682Q94.909 136.942 95.1561 137.107Q95.2761 137.187 95.4111 137.245Q94.3916 137.482 93.8203 138.088Q93.6164 138.311 93.4864 138.571Q93.2578 139.029 93.2578 139.6Q93.2578 140.297 93.558 140.822Q93.8181 141.278 94.3037 141.604Q95.3496 142.307 97.3359 142.307Q99.9111 142.307 101.273 141.411Q101.935 140.975 102.275 140.362Q102.636 139.712 102.636 138.862Q102.636 137.911 102.184 137.289Q102.021 137.065 101.801 136.884Q100.966 136.199 99.3574 136.199L97.6611 136.199Q96.8262 136.199 96.5098 136.032Q96.3422 135.941 96.2659 135.8Q96.2021 135.683 96.2021 135.531Q96.2021 135.438 96.2208 135.35Q96.3138 134.908 96.8701 134.564Q97.248 134.634 97.7139 134.634Q99.5332 134.634 100.57 133.773Q100.935 133.47 101.171 133.088Q101.607 132.383 101.607 131.409Q101.607 130.908 101.458 130.459Q101.309 130.011 101.08 129.704L102.741 129.396ZM110.221 136.629L110.634 137.983L112.11 137.983L112.11 131.435Q112.11 129.857 111.321 129.045Q111.245 128.966 111.161 128.895Q110.221 128.086 108.366 128.086Q107.531 128.086 106.591 128.306Q105.65 128.517 104.859 128.93L105.527 130.407Q106.16 130.108 106.846 129.888Q106.926 129.862 107.007 129.84Q107.619 129.668 108.278 129.668Q109.175 129.668 109.606 130.116Q109.615 130.125 109.623 130.134Q110.062 130.591 110.062 131.523L110.062 132.042L108.384 132.094Q106.099 132.165 104.982 132.929Q104.558 133.22 104.295 133.618Q103.866 134.266 103.866 135.197Q103.866 136.419 104.463 137.162Q104.557 137.28 104.666 137.385Q104.743 137.459 104.825 137.525Q105.61 138.159 106.907 138.159Q108.023 138.159 108.735 137.842Q109.447 137.517 110.15 136.629L110.221 136.629ZM121.471 137.983L123.545 137.983L123.545 131.646Q123.545 129.835 122.64 128.946Q121.765 128.086 120.047 128.086Q119.066 128.086 118.26 128.461L118.254 128.464Q117.642 128.75 117.241 129.218Q117.113 129.368 117.006 129.537L116.9 129.537L116.61 128.262L114.993 128.262L114.993 137.983L117.059 137.983L117.059 133.14Q117.059 131.321 117.665 130.547Q117.76 130.426 117.873 130.323Q118.477 129.774 119.581 129.774Q120.456 129.774 120.907 130.211Q120.964 130.266 121.014 130.328Q121.471 130.881 121.471 132.006L121.471 137.983ZM132.395 137.246Q133.506 138.159 135.366 138.159Q136.263 138.159 136.887 138.018Q137.265 137.934 137.615 137.784Q137.85 137.683 138.073 137.552L138.073 135.75Q137.358 136.149 136.592 136.316Q136.041 136.436 135.463 136.436Q134.613 136.436 134.049 136.035Q133.807 135.864 133.617 135.619Q132.993 134.792 132.993 133.158Q132.993 131.021 134.02 130.248Q134.602 129.809 135.516 129.809Q136.368 129.809 137.678 130.319L138.302 128.658Q137.071 128.086 135.533 128.086Q133.627 128.086 132.473 129.018Q132.254 129.195 132.062 129.405Q130.866 130.723 130.866 133.175Q130.866 135.583 132.009 136.875Q132.189 137.077 132.395 137.246ZM126.419 137.983L128.484 137.983L128.484 128.262L126.419 128.262L126.419 137.983ZM96.4352 132.791Q95.9912 132.301 95.9912 131.409Q95.9912 130.433 96.4482 129.923Q96.5102 129.856 96.5798 129.797Q97.0333 129.414 97.8105 129.414Q98.5962 129.414 99.031 129.804Q99.0972 129.864 99.1553 129.932Q99.6035 130.442 99.6035 131.391Q99.6035 132.413 99.0939 132.89Q98.6476 133.307 97.8105 133.307Q97.0407 133.307 96.5811 132.93Q96.516 132.876 96.457 132.815Q96.446 132.803 96.4352 132.791ZM109.153 136.121Q108.519 136.577 107.558 136.577Q106.784 136.577 106.397 136.225Q106.323 136.156 106.263 136.075Q106.011 135.739 106.011 135.214Q106.011 134.64 106.282 134.256Q106.433 134.042 106.67 133.887Q107.338 133.448 108.797 133.395L110.045 133.342L110.045 134.186Q110.045 135.079 109.619 135.662Q109.505 135.818 109.359 135.953Q109.261 136.044 109.153 136.121ZM95.2271 140.039Q95.1035 139.798 95.1035 139.495Q95.1035 139.078 95.2809 138.761Q95.4068 138.536 95.6221 138.361Q96.1494 137.948 97.0371 137.948L98.6016 137.948Q99.832 137.948 100.28 138.211Q100.43 138.3 100.53 138.428Q100.737 138.691 100.737 139.117Q100.737 139.375 100.651 139.601Q100.47 140.073 99.9111 140.4Q99.085 140.883 97.3975 140.883Q96.3076 140.883 95.7012 140.523Q95.3753 140.326 95.2271 140.039Z" fill="#274C5B" fill-opacity="1.000000" fill-rule="evenodd"/>
	<path id="100%" d="M132.026 81.8789L132.026 83.7588C132.026 85.0771 132.319 86.2897 132.905 87.3965C133.507 88.5033 134.386 89.3903 135.542 90.0576C136.714 90.7249 138.162 91.0586 139.888 91.0586C141.613 91.0586 143.045 90.7249 144.185 90.0576C145.34 89.3903 146.203 88.5033 146.772 87.3965C147.358 86.2897 147.651 85.0771 147.651 83.7588L147.651 81.8789Q147.651 80.2203 147.062 78.807Q146.932 78.4936 146.772 78.1924C146.203 77.0856 145.34 76.1986 144.185 75.5312C143.029 74.8639 141.572 74.5303 139.814 74.5303C138.122 74.5303 136.689 74.8639 135.518 75.5312C134.362 76.1986 133.491 77.0856 132.905 78.1924C132.319 79.2992 132.026 80.528 132.026 81.8789ZM98.6523 95.9658L98.6523 89.6426Q98.6523 86.4932 98.0664 84.0518C97.6921 82.4079 97.1468 80.9919 96.4307 79.8037Q95.3809 78.0215 93.8672 76.8496C92.8581 76.0684 91.7269 75.4906 90.4736 75.1162C89.2366 74.7419 87.8939 74.5547 86.4453 74.5547C84.6387 74.5547 82.9867 74.8477 81.4893 75.4336C80.0081 76.0195 78.7223 76.931 77.6318 78.168C76.5413 79.4049 75.7031 80.9674 75.1172 82.8555C74.5475 84.7435 74.2627 87.0059 74.2627 89.6426L74.2627 95.9658Q74.2627 99.0908 74.8242 101.557C75.2148 103.201 75.7682 104.617 76.4844 105.805C77.2005 106.993 78.055 107.986 79.0479 108.783C80.057 109.564 81.1881 110.142 82.4414 110.517C83.6947 110.891 85.0456 111.078 86.4941 111.078Q89.2041 111.078 91.4258 110.199C92.9232 109.597 94.209 108.677 95.2832 107.44C96.3737 106.203 97.2038 104.633 97.7734 102.729Q98.6523 99.8721 98.6523 95.9658ZM127.51 95.9658L127.51 89.6426Q127.51 86.4932 126.924 84.0518C126.549 82.4079 126.004 80.9919 125.288 79.8037Q124.238 78.0215 122.725 76.8496C121.715 76.0684 120.584 75.4906 119.331 75.1162C118.094 74.7419 116.751 74.5547 115.303 74.5547C113.496 74.5547 111.844 74.8477 110.347 75.4336C108.866 76.0195 107.58 76.931 106.489 78.168C105.399 79.4049 104.561 80.9674 103.975 82.8555C103.405 84.7435 103.12 87.0059 103.12 89.6426L103.12 95.9658C103.12 98.0491 103.307 99.9128 103.682 101.557C104.072 103.201 104.626 104.617 105.342 105.805C106.058 106.993 106.912 107.986 107.905 108.783C108.914 109.564 110.046 110.142 111.299 110.517C112.552 110.891 113.903 111.078 115.352 111.078C117.158 111.078 118.802 110.785 120.283 110.199C121.781 109.597 123.066 108.677 124.141 107.44C125.231 106.203 126.061 104.633 126.631 102.729Q127.51 99.8721 127.51 95.9658ZM63.1787 110.59L63.1787 75.0186L62.4219 75.0186L47.2852 80.3164L47.2852 86.2246L55.5371 83.71L55.5371 110.59L63.1787 110.59ZM141.353 107.929L158.711 80.1455L155.073 78.2656L137.715 106.049L141.353 107.929ZM137.007 83.7588L137.007 81.8789C137.007 81.3255 137.113 80.8128 137.324 80.3408C137.536 79.8525 137.845 79.4619 138.252 79.1689C138.675 78.876 139.196 78.7295 139.814 78.7295Q140.791 78.7295 141.426 79.1689C141.849 79.4619 142.158 79.8525 142.354 80.3408C142.565 80.8128 142.671 81.3255 142.671 81.8789L142.671 83.7588C142.671 84.2959 142.565 84.8005 142.354 85.2725C142.158 85.7445 141.857 86.127 141.45 86.4199C141.043 86.7129 140.514 86.8594 139.863 86.8594C139.229 86.8594 138.7 86.7129 138.276 86.4199C137.853 86.127 137.536 85.7445 137.324 85.2725C137.113 84.8005 137.007 84.2959 137.007 83.7588ZM91.0352 88.6416L91.0352 96.918C91.0352 98.4316 90.9294 99.7174 90.7178 100.775C90.5225 101.833 90.2214 102.688 89.8145 103.339C89.4238 103.974 88.9518 104.438 88.3984 104.73C87.845 105.007 87.2103 105.146 86.4941 105.146C85.9245 105.146 85.3955 105.056 84.9072 104.877C84.4189 104.698 83.9876 104.413 83.6133 104.022C83.2389 103.616 82.9215 103.095 82.6611 102.46Q82.2949 101.483 82.0752 100.116C81.945 99.2048 81.8799 98.1387 81.8799 96.918L81.8799 88.6416Q81.8799 86.3711 82.1729 84.8086C82.3844 83.7506 82.6855 82.9124 83.0762 82.2939C83.4668 81.6592 83.9469 81.1953 84.5166 80.9023C85.0863 80.6094 85.7292 80.4629 86.4453 80.4629C87.015 80.4629 87.5358 80.5605 88.0078 80.7559C88.4961 80.9349 88.9274 81.2197 89.3018 81.6104C89.6761 82.001 89.9854 82.5137 90.2295 83.1484C90.4899 83.7832 90.6852 84.5563 90.8154 85.4678C90.9619 86.363 91.0352 87.4209 91.0352 88.6416ZM119.893 88.6416L119.893 96.918C119.893 98.4316 119.787 99.7174 119.575 100.775C119.38 101.833 119.079 102.688 118.672 103.339C118.281 103.974 117.809 104.438 117.256 104.73C116.702 105.007 116.068 105.146 115.352 105.146C114.782 105.146 114.253 105.056 113.765 104.877C113.276 104.698 112.845 104.413 112.471 104.022C112.096 103.616 111.779 103.095 111.519 102.46Q111.152 101.483 110.933 100.116C110.802 99.2048 110.737 98.1387 110.737 96.918L110.737 88.6416Q110.737 86.3711 111.03 84.8086C111.242 83.7506 111.543 82.9124 111.934 82.2939C112.324 81.6592 112.804 81.1953 113.374 80.9023C113.944 80.6094 114.587 80.4629 115.303 80.4629C115.872 80.4629 116.393 80.5605 116.865 80.7559C117.354 80.9349 117.785 81.2197 118.159 81.6104C118.534 82.001 118.843 82.5137 119.087 83.1484C119.347 83.7832 119.543 84.5563 119.673 85.4678C119.819 86.363 119.893 87.4209 119.893 88.6416ZM148.97 101.874L148.97 103.754Q148.97 105.294 149.49 106.632Q149.646 107.033 149.849 107.416C150.451 108.523 151.338 109.41 152.51 110.077C153.682 110.744 155.138 111.078 156.88 111.078C158.589 111.078 160.013 110.744 161.152 110.077C162.308 109.41 163.171 108.523 163.74 107.416Q163.943 107.033 164.099 106.632Q164.619 105.294 164.619 103.754L164.619 101.874Q164.619 100.334 164.099 98.9957Q163.943 98.5947 163.74 98.2119C163.171 97.1051 162.308 96.2181 161.152 95.5508C159.997 94.8835 158.548 94.5498 156.807 94.5498C155.098 94.5498 153.657 94.8835 152.485 95.5508C151.33 96.2181 150.451 97.1051 149.849 98.2119Q149.646 98.5947 149.49 98.9957Q148.97 100.334 148.97 101.874ZM153.975 103.754L153.975 101.874Q153.975 101.044 154.268 100.336C154.479 99.8639 154.797 99.4814 155.22 99.1885C155.643 98.8955 156.172 98.749 156.807 98.749C157.441 98.749 157.97 98.8955 158.394 99.1885C158.817 99.4814 159.126 99.8639 159.321 100.336C159.533 100.808 159.639 101.321 159.639 101.874L159.639 103.754Q159.639 104.584 159.419 105.292C159.272 105.764 158.996 106.146 158.589 106.439C158.198 106.732 157.62 106.879 156.855 106.879C156.302 106.879 155.806 106.732 155.366 106.439C154.927 106.146 154.585 105.764 154.341 105.292Q154.224 105.065 154.144 104.826Q153.975 104.318 153.975 103.754Z" fill="#274C5B" fill-opacity="1.000000" fill-rule="evenodd"/>
	<circle id="Background" cx="378.500000" cy="105.500000" r="94.500000" fill="#F1F1F1" fill-opacity="1.000000"/>
	<path id="Background" d="M446.296 24.7002C427.954 9.28857 404.3 0 378.5 0C354.541 0.00927734 330.45 8.09814 310.7 24.7026C292.338 40.0903 279.083 61.772 274.627 87.1865C270.451 110.777 274.234 135.906 287.157 158.239C299.122 178.995 318.172 195.813 342.427 204.615C364.935 212.824 390.339 213.462 414.577 204.613C437.094 196.435 456.965 180.594 469.845 158.236C481.837 137.496 486.877 112.588 482.373 87.1826C478.228 63.5864 466.078 41.2666 446.296 24.7002ZM313.412 27.9282C331.021 13.1323 353.73 4.21484 378.5 4.21484C401.502 4.22363 424.63 11.9897 443.591 27.9307C461.22 42.7031 473.945 63.519 478.223 87.918C482.232 110.566 478.6 134.691 466.194 156.132C454.707 176.059 436.417 192.205 413.131 200.655C391.523 208.536 367.134 209.148 343.865 200.654C322.247 192.801 303.169 177.594 290.804 156.129C279.291 136.218 274.453 112.305 278.777 87.9141C282.756 65.2607 294.42 43.8325 313.412 27.9282Z" fill="#7EB693" fill-opacity="1.000000" fill-rule="evenodd"/>
	<path id="Active Product" d="M405.735 137.665Q406.549 138.159 407.662 138.159Q408.809 138.159 409.625 137.639Q410.172 137.291 410.571 136.708L410.668 136.708L411.028 137.983L412.646 137.983L412.646 124.307L410.571 124.307L410.571 127.849Q410.571 128.456 410.721 129.501L410.615 129.501Q410.232 128.96 409.714 128.625Q408.88 128.086 407.697 128.086Q406.601 128.086 405.788 128.567Q405.247 128.888 404.832 129.422Q403.804 130.75 403.804 133.14Q403.804 135.522 404.823 136.84Q405.219 137.352 405.735 137.665ZM344.956 124.887Q344.706 125.18 344.706 125.687Q344.706 126.131 344.918 126.419Q344.958 126.473 345.005 126.522Q345.027 126.543 345.05 126.563Q345.352 126.821 345.875 126.821Q346.363 126.821 346.653 126.582Q346.687 126.553 346.719 126.522Q346.777 126.464 346.824 126.398Q347.026 126.115 347.026 125.687Q347.026 125.197 346.786 124.907Q346.754 124.869 346.719 124.834Q346.687 124.803 346.653 124.775Q346.363 124.536 345.875 124.536Q345.352 124.536 345.05 124.794Q345.027 124.813 345.005 124.834Q344.979 124.86 344.956 124.887ZM323.841 134.415L325.124 137.983L327.356 137.983L322.549 125.081L320.264 125.081L315.456 137.983L317.671 137.983L318.928 134.415L323.841 134.415ZM382.577 131.434Q383.264 130.471 383.264 129.018Q383.264 127.542 382.549 126.619Q382.336 126.344 382.06 126.118Q380.864 125.133 378.456 125.133L374.756 125.133L374.756 137.983L376.856 137.983L376.856 133.175L378.192 133.175Q380.627 133.175 381.945 132.103Q382.312 131.805 382.577 131.434ZM342.878 136.251Q342.122 136.489 341.366 136.489Q340.888 136.489 340.552 136.27Q340.462 136.212 340.382 136.137Q340.013 135.777 340.013 135.03L340.013 129.827L342.781 129.827L342.781 128.262L340.013 128.262L340.013 126.1L338.738 126.1L338.035 128.157L336.611 128.913L336.611 129.827L337.938 129.827L337.938 135.065Q337.938 136.693 338.751 137.464Q339.483 138.159 340.874 138.159Q341.454 138.159 341.99 138.053Q342.535 137.957 342.878 137.807L342.878 136.251ZM441.069 136.251Q440.313 136.489 439.558 136.489Q439.08 136.489 438.744 136.27Q438.653 136.212 438.573 136.137Q438.204 135.777 438.204 135.03L438.204 129.827L440.973 129.827L440.973 128.262L438.204 128.262L438.204 126.1L436.93 126.1L436.227 128.157L434.803 128.913L434.803 129.827L436.13 129.827L436.13 135.065Q436.13 136.693 436.943 137.464Q437.675 138.159 439.065 138.159Q439.646 138.159 440.182 138.053Q440.727 137.957 441.069 137.807L441.069 136.251ZM322.083 129.106L323.287 132.604L319.543 132.604L320.703 129.255Q321.16 127.972 321.397 126.891Q321.485 127.243 321.714 127.999Q321.951 128.754 322.083 129.106ZM377.973 131.409L376.856 131.409L376.856 126.891L378.315 126.891Q379.748 126.891 380.425 127.436Q380.557 127.543 380.664 127.671Q381.102 128.198 381.102 129.088Q381.102 130.019 380.644 130.566Q380.513 130.722 380.346 130.846Q379.59 131.409 377.973 131.409ZM329.782 137.246Q330.893 138.159 332.753 138.159Q333.649 138.159 334.273 138.018Q334.652 137.934 335.002 137.784Q335.237 137.683 335.46 137.552L335.46 135.75Q334.745 136.149 333.979 136.316Q333.427 136.436 332.85 136.436Q332 136.436 331.435 136.035Q331.194 135.864 331.004 135.619Q330.38 134.792 330.38 133.158Q330.38 131.021 331.407 130.248Q331.989 129.809 332.902 129.809Q333.755 129.809 335.064 130.319L335.688 128.658Q334.458 128.086 332.92 128.086Q331.014 128.086 329.859 129.018Q329.64 129.195 329.448 129.405Q328.253 130.723 328.253 133.175Q328.253 135.583 329.396 136.875Q329.576 137.077 329.782 137.246ZM360.664 137.262Q361.865 138.159 363.734 138.159Q364.728 138.159 365.501 138.009Q366.274 137.86 367.03 137.5L367.03 135.821Q366.178 136.199 365.431 136.366Q364.692 136.524 363.831 136.524Q362.731 136.524 362.047 135.991Q361.916 135.889 361.801 135.768Q361.08 135.003 361.036 133.588L367.514 133.588L367.514 132.472Q367.514 130.646 366.626 129.519Q366.518 129.382 366.397 129.255Q366.141 128.987 365.842 128.78Q364.839 128.086 363.356 128.086Q361.912 128.086 360.898 128.747Q360.456 129.035 360.096 129.449Q360.087 129.459 360.077 129.47Q358.909 130.829 358.909 133.193Q358.909 135.241 359.902 136.515Q360.034 136.685 360.184 136.84Q360.409 137.072 360.664 137.262ZM391.569 128.174Q391.165 128.086 390.541 128.086Q390.205 128.086 389.884 128.158Q389.351 128.278 388.862 128.596Q388.715 128.693 388.579 128.803Q387.997 129.271 387.605 129.976L387.5 129.976L387.228 128.262L385.61 128.262L385.61 137.983L387.676 137.983L387.676 132.903Q387.676 131.917 388.121 131.212Q388.259 130.994 388.44 130.802Q388.701 130.53 389.015 130.349Q389.632 129.994 390.453 129.994Q390.928 129.994 391.367 130.099L391.569 128.174ZM400.869 136.723Q402.002 135.399 402.002 133.105Q402.002 131.021 400.994 129.714Q400.888 129.577 400.771 129.449Q400.409 129.047 399.97 128.764Q398.92 128.086 397.432 128.086Q395.673 128.086 394.545 128.93Q394.258 129.145 394.013 129.414Q393.968 129.463 393.924 129.514Q392.8 130.829 392.8 133.105Q392.8 134.625 393.362 135.777Q393.735 136.54 394.32 137.068Q394.618 137.336 394.971 137.543Q395.075 137.605 395.182 137.66Q396.152 138.159 397.379 138.159Q399.063 138.159 400.175 137.361Q400.503 137.126 400.78 136.823Q400.825 136.774 400.869 136.723ZM427.974 137.246Q429.084 138.159 430.944 138.159Q431.841 138.159 432.465 138.018Q432.843 137.934 433.193 137.784Q433.429 137.683 433.651 137.552L433.651 135.75Q432.936 136.149 432.171 136.316Q431.619 136.436 431.041 136.436Q430.192 136.436 429.627 136.035Q429.385 135.864 429.195 135.619Q428.571 134.792 428.571 133.158Q428.571 131.021 429.598 130.248Q430.181 129.809 431.094 129.809Q431.946 129.809 433.256 130.319L433.88 128.658Q432.649 128.086 431.111 128.086Q429.205 128.086 428.051 129.018Q427.832 129.195 427.64 129.405Q426.444 130.723 426.444 133.175Q426.444 135.583 427.587 136.875Q427.767 137.077 427.974 137.246ZM344.829 137.983L346.895 137.983L346.895 128.262L344.829 128.262L344.829 137.983ZM348.38 128.262L352.071 137.983L354.304 137.983L358.013 128.262L355.815 128.262L353.838 133.914Q353.302 135.583 353.223 136.216L353.152 136.216Q353.047 135.337 352.537 133.914L350.56 128.262L348.38 128.262ZM422.164 136.708L422.454 137.983L424.08 137.983L424.08 128.262L422.006 128.262L422.006 133.105Q422.006 134.933 421.391 135.715Q421.291 135.842 421.173 135.948Q420.571 136.489 419.483 136.489Q418.626 136.489 418.169 136.061Q418.106 136.002 418.051 135.935Q417.594 135.373 417.594 134.256L417.594 128.262L415.511 128.262L415.511 134.617Q415.511 136.401 416.381 137.28Q417.251 138.159 419.018 138.159Q420.037 138.159 420.828 137.772Q421.493 137.451 421.902 136.929Q421.986 136.823 422.059 136.708L422.164 136.708ZM362.159 129.962Q362.661 129.651 363.356 129.651Q364.077 129.651 364.571 129.985Q364.753 130.108 364.903 130.275Q365.466 130.89 365.483 132.094L361.071 132.094Q361.186 130.899 361.774 130.275Q361.95 130.092 362.159 129.962ZM395.967 136.051Q394.927 135.282 394.927 133.105Q394.927 131.497 395.507 130.635Q395.659 130.413 395.859 130.248Q396.432 129.774 397.396 129.774Q398.28 129.774 398.848 130.197Q399.875 130.961 399.875 133.105Q399.875 135.299 398.83 136.063Q398.271 136.471 397.414 136.471Q396.536 136.471 395.967 136.051ZM409.941 135.919Q409.356 136.489 408.216 136.489Q407.497 136.489 407.005 136.155Q406.714 135.958 406.502 135.645Q405.931 134.792 405.931 133.175Q405.931 131.541 406.52 130.662Q406.799 130.24 407.191 130.019Q407.626 129.774 408.198 129.774Q409.239 129.774 409.828 130.29Q409.961 130.405 410.07 130.547Q410.668 131.321 410.668 133.158L410.668 133.448Q410.65 135.056 410.07 135.777Q410.009 135.852 409.941 135.919Z" fill="#274C5B" fill-opacity="1.000000" fill-rule="evenodd"/>
	<path id="285" d="M362.094 110.59L362.094 104.657L347.47 104.657L352.841 98.5537C354.11 97.2842 355.25 96.0798 356.259 94.9404C357.268 93.7848 358.131 92.6536 358.847 91.5469C359.563 90.4401 360.108 89.3252 360.482 88.2021C360.873 87.0791 361.068 85.9154 361.068 84.7109Q361.068 81.5127 359.726 79.2422C358.83 77.7285 357.512 76.5648 355.771 75.751C354.029 74.9372 351.872 74.5303 349.301 74.5303Q345.541 74.5303 342.733 76.1416C340.862 77.1995 339.405 78.6237 338.363 80.4141Q337.868 81.2571 337.53 82.1589Q336.801 84.1038 336.801 86.3223L344.467 86.3223Q344.467 84.6377 345.028 83.3193C345.403 82.4242 345.94 81.7243 346.64 81.2197C347.34 80.7152 348.178 80.4629 349.154 80.4629Q350.521 80.4629 351.474 81.0488C352.108 81.4395 352.589 82.001 352.914 82.7334Q353.427 83.832 353.427 85.4189C353.427 86.07 353.28 86.7861 352.987 87.5674C352.694 88.3324 352.222 89.1868 351.571 90.1309C350.937 91.0749 350.082 92.1654 349.008 93.4023L337.533 105.561L337.533 110.59L362.094 110.59ZM388.485 89.3496C389.462 87.9499 389.95 86.3304 389.95 84.4912Q389.95 81.2686 388.485 79.0469C387.509 77.5658 386.158 76.4427 384.433 75.6777C382.707 74.9128 380.722 74.5303 378.476 74.5303C376.262 74.5303 374.293 74.9128 372.567 75.6777C370.842 76.4427 369.483 77.5658 368.49 79.0469Q367.025 81.2686 367.025 84.4912C367.025 86.3304 367.514 87.9499 368.49 89.3496C369.348 90.5451 370.479 91.5157 371.884 92.2615C371.103 92.6282 370.387 93.0655 369.735 93.5732C368.645 94.4359 367.79 95.4775 367.172 96.6982C366.57 97.9189 366.269 99.2943 366.269 100.824Q366.269 104.076 367.769 106.326Q367.824 106.408 367.88 106.488C368.954 108.018 370.411 109.166 372.25 109.931C374.105 110.696 376.197 111.078 378.524 111.078C380.868 111.078 382.952 110.696 384.774 109.931C386.614 109.166 388.062 108.018 389.12 106.488C390.178 104.958 390.707 103.07 390.707 100.824C390.707 98.7897 390.178 97.0319 389.12 95.5508C388.128 94.1621 386.786 93.0739 385.093 92.2861C386.516 91.5371 387.646 90.5583 388.485 89.3496ZM396.005 93.1338L402.06 94.5742C402.45 94.1022 402.995 93.6628 403.695 93.2559C404.395 92.849 405.364 92.6455 406.601 92.6455Q408.017 92.6455 409.018 93.085C409.701 93.3616 410.263 93.7686 410.702 94.3057C411.142 94.8265 411.467 95.4613 411.679 96.21C411.89 96.9424 411.996 97.7725 411.996 98.7002C411.996 99.5954 411.915 100.434 411.752 101.215C411.589 101.996 411.329 102.68 410.971 103.266Q410.714 103.705 410.366 104.053Q410.019 104.401 409.579 104.657C408.993 104.983 408.277 105.146 407.431 105.146C406.552 105.146 405.779 104.966 405.111 104.608C404.444 104.234 403.915 103.713 403.524 103.046C403.134 102.362 402.898 101.549 402.816 100.604L395.199 100.604Q395.223 102.997 396.185 104.921Q396.205 104.96 396.225 104.999C396.908 106.301 397.828 107.408 398.983 108.319Q399.219 108.499 399.462 108.668Q401.036 109.757 402.938 110.37C404.403 110.842 405.917 111.078 407.479 111.078C409.547 111.078 411.345 110.753 412.875 110.102C414.405 109.451 415.666 108.572 416.659 107.465C417.668 106.342 418.417 105.072 418.905 103.656C419.394 102.224 419.638 100.727 419.638 99.1641Q419.638 96.332 418.905 94.1104C418.433 92.6292 417.725 91.3841 416.781 90.375C415.854 89.3496 414.714 88.5684 413.363 88.0312C412.012 87.4941 410.466 87.2256 408.725 87.2256C407.553 87.2256 406.495 87.3884 405.551 87.7139C404.607 88.0231 403.915 88.3079 403.476 88.5684L404.33 81.0732L418.441 81.0732L418.441 75.043L398.08 75.043L396.005 93.1338ZM381.869 82.5625C382.178 83.2135 382.333 83.9867 382.333 84.8818C382.333 85.7933 382.187 86.5908 381.894 87.2744C381.601 87.9417 381.169 88.4707 380.6 88.8613C380.046 89.2357 379.354 89.4229 378.524 89.4229C377.711 89.4229 377.011 89.2357 376.425 88.8613C375.855 88.4707 375.416 87.9417 375.106 87.2744C374.813 86.5908 374.667 85.7933 374.667 84.8818Q374.667 83.4902 375.106 82.5137Q375.471 81.7263 376.078 81.2411Q376.242 81.1094 376.425 81C376.994 80.6419 377.678 80.4629 378.476 80.4629C379.306 80.4629 380.006 80.6501 380.575 81.0244C381.145 81.3825 381.576 81.8952 381.869 82.5625ZM382.455 97.626Q383.041 98.7002 383.041 100.263C383.041 101.272 382.854 102.151 382.479 102.899C382.105 103.632 381.584 104.193 380.917 104.584C380.25 104.958 379.452 105.146 378.524 105.146C377.597 105.146 376.791 104.958 376.107 104.584Q375.77 104.391 375.48 104.142Q374.889 103.636 374.496 102.899Q373.91 101.776 373.91 100.263C373.91 99.221 374.097 98.3421 374.472 97.626Q374.865 96.8893 375.455 96.3831Q375.745 96.1344 376.083 95.9414C376.767 95.5345 377.564 95.3311 378.476 95.3311C379.387 95.3311 380.185 95.5345 380.868 95.9414C381.552 96.332 382.081 96.8936 382.455 97.626Z" fill="#274C5B" fill-opacity="1.000000" fill-rule="evenodd"/>
	<circle id="Background" cx="651.500000" cy="105.500000" r="94.500000" fill="#F1F1F1" fill-opacity="1.000000"/>
	<path id="Background" d="M719.296 24.7002C700.954 9.28857 677.3 0 651.5 0C627.541 0.00927734 603.45 8.09814 583.7 24.7026C565.338 40.0903 552.083 61.772 547.627 87.1865C543.451 110.777 547.234 135.906 560.157 158.239C572.122 178.995 591.172 195.813 615.427 204.615C637.935 212.824 663.339 213.462 687.577 204.613C710.094 196.435 729.965 180.594 742.845 158.236C754.837 137.496 759.877 112.588 755.373 87.1826C751.228 63.5864 739.078 41.2666 719.296 24.7002ZM586.412 27.9282C604.021 13.1323 626.73 4.21484 651.5 4.21484C674.502 4.22363 697.63 11.9897 716.591 27.9307C734.22 42.7031 746.945 63.519 751.223 87.918C755.232 110.566 751.6 134.691 739.194 156.132C727.707 176.059 709.417 192.205 686.131 200.655C664.523 208.536 640.134 209.148 616.865 200.654C595.247 192.801 576.169 177.594 563.804 156.129C552.291 136.218 547.453 112.305 551.777 87.9141C555.756 65.2607 567.42 43.8325 586.412 27.9282Z" fill="#7EB693" fill-opacity="1.000000" fill-rule="evenodd"/>
	<path id="Organic Orchads" d="M689.672 137.983L691.746 137.983L691.746 131.646Q691.746 129.853 690.85 128.963Q689.966 128.086 688.213 128.086Q687.211 128.086 686.455 128.473Q686.017 128.7 685.691 129.035Q685.461 129.272 685.286 129.563L685.154 129.563Q685.26 128.614 685.26 127.779L685.26 124.307L683.194 124.307L683.194 137.983L685.26 137.983L685.26 133.158Q685.26 131.33 685.866 130.556Q685.974 130.419 686.104 130.305Q686.71 129.774 687.782 129.774Q688.657 129.774 689.108 130.211Q689.165 130.266 689.215 130.328Q689.672 130.881 689.672 132.006L689.672 137.983ZM706.413 137.665Q707.226 138.159 708.34 138.159Q709.486 138.159 710.303 137.639Q710.85 137.291 711.249 136.708L711.346 136.708L711.706 137.983L713.323 137.983L713.323 124.307L711.249 124.307L711.249 127.849Q711.249 128.456 711.398 129.501L711.293 129.501Q710.909 128.96 710.392 128.625Q709.557 128.086 708.375 128.086Q707.278 128.086 706.466 128.567Q705.925 128.888 705.51 129.422Q704.481 130.75 704.481 133.14Q704.481 135.522 705.501 136.84Q705.897 137.352 706.413 137.665ZM633.857 124.887Q633.606 125.18 633.606 125.687Q633.606 126.131 633.818 126.419Q633.858 126.473 633.905 126.522Q633.927 126.543 633.95 126.563Q634.253 126.821 634.775 126.821Q635.263 126.821 635.554 126.582Q635.588 126.553 635.619 126.522Q635.677 126.464 635.725 126.398Q635.927 126.115 635.927 125.687Q635.927 125.197 635.686 124.907Q635.655 124.869 635.619 124.834Q635.588 124.803 635.554 124.775Q635.263 124.536 634.775 124.536Q634.253 124.536 633.95 124.794Q633.927 124.813 633.905 124.834Q633.88 124.86 633.857 124.887ZM589.99 136.384Q591.533 134.648 591.533 131.541Q591.533 128.394 589.969 126.663Q589.648 126.307 589.272 126.025Q587.816 124.931 585.539 124.931Q583.129 124.931 581.636 126.101Q581.327 126.343 581.057 126.636Q579.492 128.341 579.492 131.523Q579.492 134.705 581.048 136.436Q581.331 136.748 581.658 137.003Q583.138 138.159 585.521 138.159Q587.802 138.159 589.258 137.063Q589.637 136.778 589.96 136.418Q589.975 136.401 589.99 136.384ZM662.43 136.384Q663.973 134.648 663.973 131.541Q663.973 128.394 662.408 126.663Q662.087 126.307 661.711 126.025Q660.255 124.931 657.979 124.931Q655.569 124.931 654.076 126.101Q653.766 126.343 653.496 126.636Q651.932 128.341 651.932 131.523Q651.932 134.705 653.487 136.436Q653.77 136.748 654.097 137.003Q655.578 138.159 657.961 138.159Q660.241 138.159 661.697 137.063Q662.076 136.778 662.399 136.418Q662.415 136.401 662.43 136.384ZM582.683 135.144Q581.725 133.914 581.725 131.541Q581.725 129.176 582.683 127.955Q582.93 127.642 583.238 127.409Q584.133 126.733 585.539 126.733Q586.922 126.733 587.797 127.4Q588.106 127.636 588.352 127.955Q589.301 129.176 589.301 131.541Q589.301 133.94 588.343 135.153Q588.1 135.464 587.796 135.695Q586.914 136.366 585.521 136.366Q584.129 136.366 583.242 135.696Q582.931 135.461 582.683 135.144ZM655.122 135.144Q654.164 133.914 654.164 131.541Q654.164 129.176 655.122 127.955Q655.37 127.642 655.678 127.409Q656.573 126.733 657.979 126.733Q659.362 126.733 660.236 127.4Q660.545 127.636 660.791 127.955Q661.74 129.176 661.74 131.541Q661.74 133.94 660.782 135.153Q660.539 135.464 660.235 135.695Q659.353 136.366 657.961 136.366Q656.568 136.366 655.682 135.696Q655.371 135.461 655.122 135.144ZM600.032 128.174Q599.628 128.086 599.004 128.086Q598.667 128.086 598.347 128.158Q597.814 128.278 597.325 128.596Q597.178 128.693 597.042 128.803Q596.46 129.271 596.068 129.976L595.963 129.976L595.69 128.262L594.073 128.262L594.073 137.983L596.139 137.983L596.139 132.903Q596.139 131.917 596.584 131.212Q596.722 130.994 596.903 130.802Q597.164 130.53 597.478 130.349Q598.094 129.994 598.916 129.994Q599.391 129.994 599.83 130.099L600.032 128.174ZM610.052 129.396L610.052 128.262L606.686 128.262Q606.457 128.201 606 128.148Q605.552 128.086 605.139 128.086Q603.293 128.086 602.291 128.957Q602.047 129.17 601.863 129.427Q601.298 130.215 601.298 131.409Q601.298 132.268 601.653 132.94Q601.704 133.037 601.764 133.131Q602.08 133.617 602.52 133.923Q602.741 134.077 602.994 134.186Q602.388 134.555 602.08 134.933Q602.001 135.03 601.942 135.139Q601.772 135.451 601.772 135.856Q601.772 135.948 601.785 136.039Q601.829 136.371 602.036 136.682Q602.22 136.942 602.467 137.107Q602.587 137.187 602.722 137.245Q601.702 137.482 601.131 138.088Q600.927 138.311 600.797 138.571Q600.568 139.029 600.568 139.6Q600.568 140.297 600.869 140.822Q601.129 141.278 601.614 141.604Q602.66 142.307 604.646 142.307Q607.222 142.307 608.584 141.411Q609.245 140.975 609.586 140.362Q609.946 139.712 609.946 138.862Q609.946 137.911 609.494 137.289Q609.332 137.065 609.111 136.884Q608.276 136.199 606.668 136.199L604.972 136.199Q604.137 136.199 603.82 136.032Q603.653 135.941 603.576 135.8Q603.513 135.683 603.513 135.531Q603.513 135.438 603.531 135.35Q603.624 134.908 604.181 134.564Q604.559 134.634 605.024 134.634Q606.844 134.634 607.881 133.773Q608.246 133.47 608.482 133.088Q608.918 132.383 608.918 131.409Q608.918 130.908 608.769 130.459Q608.619 130.011 608.391 129.704L610.052 129.396ZM617.531 136.629L617.944 137.983L619.421 137.983L619.421 131.435Q619.421 129.857 618.632 129.045Q618.556 128.966 618.472 128.895Q617.531 128.086 615.677 128.086Q614.842 128.086 613.901 128.306Q612.961 128.517 612.17 128.93L612.838 130.407Q613.471 130.108 614.156 129.888Q614.237 129.862 614.318 129.84Q614.929 129.668 615.589 129.668Q616.485 129.668 616.917 130.116Q616.925 130.125 616.934 130.134Q617.373 130.591 617.373 131.523L617.373 132.042L615.694 132.094Q613.409 132.165 612.293 132.929Q611.868 133.22 611.605 133.618Q611.177 134.266 611.177 135.197Q611.177 136.419 611.773 137.162Q611.867 137.28 611.977 137.385Q612.053 137.459 612.135 137.525Q612.921 138.159 614.218 138.159Q615.334 138.159 616.046 137.842Q616.758 137.517 617.461 136.629L617.531 136.629ZM628.781 137.983L630.855 137.983L630.855 131.646Q630.855 129.835 629.95 128.946Q629.076 128.086 627.357 128.086Q626.377 128.086 625.571 128.461L625.564 128.464Q624.952 128.75 624.552 129.218Q624.423 129.368 624.316 129.537L624.211 129.537L623.921 128.262L622.304 128.262L622.304 137.983L624.369 137.983L624.369 133.14Q624.369 131.321 624.976 130.547Q625.071 130.426 625.184 130.323Q625.788 129.774 626.892 129.774Q627.766 129.774 628.218 130.211Q628.274 130.266 628.324 130.328Q628.781 130.881 628.781 132.006L628.781 137.983ZM639.706 137.246Q640.816 138.159 642.677 138.159Q643.573 138.159 644.197 138.018Q644.576 137.934 644.925 137.784Q645.161 137.683 645.384 137.552L645.384 135.75Q644.669 136.149 643.903 136.316Q643.351 136.436 642.773 136.436Q641.924 136.436 641.359 136.035Q641.117 135.864 640.928 135.619Q640.304 134.792 640.304 133.158Q640.304 131.021 641.33 130.248Q641.913 129.809 642.826 129.809Q643.679 129.809 644.988 130.319L645.612 128.658Q644.382 128.086 642.844 128.086Q640.938 128.086 639.783 129.018Q639.564 129.195 639.372 129.405Q638.177 130.723 638.177 133.175Q638.177 135.583 639.319 136.875Q639.5 137.077 639.706 137.246ZM672.472 128.174Q672.067 128.086 671.443 128.086Q671.107 128.086 670.786 128.158Q670.253 128.278 669.765 128.596Q669.618 128.693 669.481 128.803Q668.899 129.271 668.508 129.976L668.402 129.976L668.13 128.262L666.513 128.262L666.513 137.983L668.578 137.983L668.578 132.903Q668.578 131.917 669.023 131.212Q669.162 130.994 669.343 130.802Q669.604 130.53 669.917 130.349Q670.534 129.994 671.355 129.994Q671.83 129.994 672.27 130.099L672.472 128.174ZM675.231 137.246Q676.342 138.159 678.202 138.159Q679.099 138.159 679.723 138.018Q680.101 137.934 680.451 137.784Q680.686 137.683 680.909 137.552L680.909 135.75Q680.194 136.149 679.428 136.316Q678.877 136.436 678.299 136.436Q677.449 136.436 676.884 136.035Q676.643 135.864 676.453 135.619Q675.829 134.792 675.829 133.158Q675.829 131.021 676.856 130.248Q677.438 129.809 678.352 129.809Q679.204 129.809 680.514 130.319L681.138 128.658Q679.907 128.086 678.369 128.086Q676.463 128.086 675.309 129.018Q675.089 129.195 674.897 129.405Q673.702 130.723 673.702 133.175Q673.702 135.583 674.845 136.875Q675.025 137.077 675.231 137.246ZM700.289 136.629L700.702 137.983L702.179 137.983L702.179 131.435Q702.179 129.857 701.39 129.045Q701.313 128.966 701.229 128.895Q700.289 128.086 698.435 128.086Q697.6 128.086 696.659 128.306Q695.719 128.517 694.928 128.93L695.596 130.407Q696.229 130.108 696.914 129.888Q696.994 129.862 697.076 129.84Q697.687 129.668 698.347 129.668Q699.243 129.668 699.674 130.116Q699.683 130.125 699.691 130.134Q700.131 130.591 700.131 131.523L700.131 132.042L698.452 132.094Q696.167 132.165 695.051 132.929Q694.626 133.22 694.363 133.618Q693.935 134.266 693.935 135.197Q693.935 136.419 694.531 137.162Q694.625 137.28 694.734 137.385Q694.811 137.459 694.893 137.525Q695.679 138.159 696.976 138.159Q698.092 138.159 698.804 137.842Q699.516 137.517 700.219 136.629L700.289 136.629ZM722.406 136.73Q722.807 136.099 722.807 135.214Q722.807 134.511 722.543 134.01Q722.279 133.5 721.734 133.114Q721.189 132.727 719.985 132.261Q718.553 131.708 718.122 131.391Q717.837 131.178 717.745 130.9Q717.7 130.766 717.7 130.618Q717.7 130.389 717.798 130.217Q718.101 129.686 719.335 129.686Q720.407 129.686 721.98 130.336L722.648 128.781Q722.056 128.512 721.437 128.347Q720.456 128.086 719.405 128.086Q717.674 128.086 716.663 128.781Q716.194 129.102 715.944 129.546Q715.661 130.051 715.661 130.714Q715.661 131.552 716.046 132.138Q716.137 132.277 716.25 132.402Q716.848 133.052 718.526 133.703Q719.388 134.037 719.871 134.3Q720.354 134.564 720.565 134.81Q720.616 134.869 720.654 134.934Q720.776 135.144 720.776 135.425Q720.776 135.733 720.64 135.958Q720.267 136.577 718.869 136.577Q717.393 136.577 715.679 135.786L715.679 137.57Q716.856 138.159 718.799 138.159Q720.732 138.159 721.77 137.403Q722.162 137.113 722.406 136.73ZM633.729 137.983L635.795 137.983L635.795 128.262L633.729 128.262L633.729 137.983ZM603.746 132.791Q603.302 132.301 603.302 131.409Q603.302 130.433 603.759 129.923Q603.821 129.856 603.89 129.797Q604.344 129.414 605.121 129.414Q605.907 129.414 606.342 129.804Q606.408 129.864 606.466 129.932Q606.914 130.442 606.914 131.391Q606.914 132.413 606.404 132.89Q605.958 133.307 605.121 133.307Q604.351 133.307 603.892 132.93Q603.826 132.876 603.768 132.815Q603.757 132.803 603.746 132.791ZM710.618 135.919Q710.034 136.489 708.894 136.489Q708.175 136.489 707.683 136.155Q707.392 135.958 707.18 135.645Q706.608 134.792 706.608 133.175Q706.608 131.541 707.197 130.662Q707.477 130.24 707.869 130.019Q708.303 129.774 708.876 129.774Q709.917 129.774 710.506 130.29Q710.638 130.405 710.748 130.547Q711.346 131.321 711.346 133.158L711.346 133.448Q711.328 135.056 710.748 135.777Q710.687 135.852 710.618 135.919ZM616.463 136.121Q615.829 136.577 614.868 136.577Q614.095 136.577 613.708 136.225Q613.633 136.156 613.573 136.075Q613.321 135.739 613.321 135.214Q613.321 134.64 613.592 134.256Q613.744 134.042 613.98 133.887Q614.648 133.448 616.107 133.395L617.355 133.342L617.355 134.186Q617.355 135.079 616.93 135.662Q616.815 135.818 616.67 135.953Q616.571 136.044 616.463 136.121ZM699.221 136.121Q698.587 136.577 697.626 136.577Q696.853 136.577 696.466 136.225Q696.391 136.156 696.331 136.075Q696.079 135.739 696.079 135.214Q696.079 134.64 696.35 134.256Q696.502 134.042 696.738 133.887Q697.406 133.448 698.865 133.395L700.113 133.342L700.113 134.186Q700.113 135.079 699.688 135.662Q699.573 135.818 699.428 135.953Q699.329 136.044 699.221 136.121ZM602.538 140.039Q602.414 139.798 602.414 139.495Q602.414 139.078 602.591 138.761Q602.717 138.536 602.933 138.361Q603.46 137.948 604.348 137.948L605.912 137.948Q607.143 137.948 607.591 138.211Q607.74 138.3 607.841 138.428Q608.048 138.691 608.048 139.117Q608.048 139.375 607.961 139.601Q607.781 140.073 607.222 140.4Q606.396 140.883 604.708 140.883Q603.618 140.883 603.012 140.523Q602.686 140.326 602.538 140.039Z" fill="#274C5B" fill-opacity="1.000000" fill-rule="evenodd"/>
	<path id="350+" d="M607.763 89.5693L603.881 89.5693L603.881 95.3066L607.763 95.3066C608.902 95.3066 609.879 95.4857 610.692 95.8438C611.506 96.1855 612.125 96.7389 612.548 97.5039C612.987 98.2526 613.207 99.2454 613.207 100.482C613.207 101.394 613.004 102.2 612.597 102.899C612.206 103.599 611.628 104.153 610.863 104.56C610.115 104.95 609.203 105.146 608.129 105.146C607.234 105.146 606.404 104.958 605.639 104.584C604.89 104.193 604.296 103.673 603.856 103.021C603.433 102.354 603.222 101.605 603.222 100.775L595.58 100.775Q595.58 103.461 596.654 105.414C597.37 106.7 598.323 107.766 599.511 108.612C600.699 109.442 602.025 110.061 603.49 110.468C604.955 110.875 606.428 111.078 607.909 111.078C609.748 111.078 611.457 110.85 613.036 110.395Q615.404 109.687 617.162 108.344Q618.152 107.587 618.895 106.637Q619.47 105.901 619.896 105.048C620.548 103.746 620.873 102.265 620.873 100.604C620.873 99.2048 620.604 97.9352 620.067 96.7959C619.53 95.6566 618.749 94.6882 617.724 93.8906Q616.476 92.9203 614.795 92.3194C615.669 91.912 616.45 91.4267 617.138 90.8633C618.147 90.0332 618.92 89.0892 619.457 88.0312C620.01 86.957 620.287 85.8421 620.287 84.6865Q620.287 81.3926 618.749 79.1559Q618.737 79.138 618.725 79.1201C617.699 77.6064 616.251 76.4671 614.379 75.7021Q611.596 74.5303 607.909 74.5303C605.777 74.5303 603.808 74.929 602.001 75.7266C600.211 76.5078 598.77 77.6227 597.68 79.0713Q597.26 79.6376 596.949 80.2585Q596.068 82.0204 596.068 84.2227L603.71 84.2227Q603.71 83.3196 604.087 82.6195Q604.199 82.4111 604.345 82.2207C604.768 81.651 605.313 81.2197 605.98 80.9268C606.664 80.6175 607.38 80.4629 608.129 80.4629C609.171 80.4629 610.017 80.6582 610.668 81.0488C611.335 81.4232 611.832 81.9359 612.157 82.5869C612.483 83.238 612.646 83.9785 612.646 84.8086C612.646 85.7689 612.466 86.6071 612.108 87.3232C611.767 88.0394 611.229 88.5928 610.497 88.9834Q609.423 89.5693 607.763 89.5693ZM678.539 95.9658L678.539 89.6426Q678.539 86.4932 677.953 84.0518C677.579 82.4079 677.034 80.9919 676.317 79.8037Q675.268 78.0215 673.754 76.8496C672.745 76.0684 671.614 75.4906 670.36 75.1162C669.123 74.7419 667.781 74.5547 666.332 74.5547C664.525 74.5547 662.873 74.8477 661.376 75.4336C659.895 76.0195 658.609 76.931 657.519 78.168C656.428 79.4049 655.59 80.9674 655.004 82.8555C654.434 84.7435 654.149 87.0059 654.149 89.6426L654.149 95.9658C654.149 98.0491 654.337 99.9128 654.711 101.557C655.102 103.201 655.655 104.617 656.371 105.805C657.087 106.993 657.942 107.986 658.935 108.783C659.944 109.564 661.075 110.142 662.328 110.517C663.581 110.891 664.932 111.078 666.381 111.078C668.188 111.078 669.831 110.785 671.312 110.199C672.81 109.597 674.096 108.677 675.17 107.44C676.26 106.203 677.091 104.633 677.66 102.729Q678.539 99.8721 678.539 95.9658ZM626.146 93.1338L632.201 94.5742C632.592 94.1022 633.137 93.6628 633.837 93.2559C634.537 92.849 635.505 92.6455 636.742 92.6455Q638.158 92.6455 639.159 93.085C639.843 93.3616 640.404 93.7686 640.844 94.3057C641.283 94.8265 641.609 95.4613 641.82 96.21C642.032 96.9424 642.138 97.7725 642.138 98.7002C642.138 99.5954 642.056 100.434 641.894 101.215C641.731 101.996 641.47 102.68 641.112 103.266Q640.856 103.705 640.508 104.053Q640.16 104.401 639.721 104.657C639.135 104.983 638.419 105.146 637.572 105.146C636.693 105.146 635.92 104.966 635.253 104.608C634.586 104.234 634.057 103.713 633.666 103.046C633.275 102.362 633.039 101.549 632.958 100.604L625.341 100.604Q625.365 102.997 626.327 104.921Q626.346 104.96 626.366 104.999C627.05 106.301 627.969 107.408 629.125 108.319Q629.361 108.499 629.604 108.668Q631.177 109.757 633.08 110.37C634.545 110.842 636.059 111.078 637.621 111.078C639.688 111.078 641.487 110.753 643.017 110.102C644.547 109.451 645.808 108.572 646.801 107.465C647.81 106.342 648.559 105.072 649.047 103.656C649.535 102.224 649.779 100.727 649.779 99.1641Q649.779 96.332 649.047 94.1104C648.575 92.6292 647.867 91.3841 646.923 90.375C645.995 89.3496 644.856 88.5684 643.505 88.0312C642.154 87.4941 640.608 87.2256 638.866 87.2256C637.694 87.2256 636.636 87.3884 635.692 87.7139C634.748 88.0231 634.057 88.3079 633.617 88.5684L634.472 81.0732L648.583 81.0732L648.583 75.043L628.222 75.043L626.146 93.1338ZM670.922 88.6416L670.922 96.918C670.922 98.4316 670.816 99.7174 670.604 100.775C670.409 101.833 670.108 102.688 669.701 103.339C669.311 103.974 668.839 104.438 668.285 104.73C667.732 105.007 667.097 105.146 666.381 105.146C665.811 105.146 665.282 105.056 664.794 104.877C664.306 104.698 663.874 104.413 663.5 104.022C663.126 103.616 662.808 103.095 662.548 102.46Q662.182 101.483 661.962 100.116C661.832 99.2048 661.767 98.1387 661.767 96.918L661.767 88.6416Q661.767 86.3711 662.06 84.8086C662.271 83.7506 662.572 82.9124 662.963 82.2939C663.354 81.6592 663.834 81.1953 664.403 80.9023C664.973 80.6094 665.616 80.4629 666.332 80.4629C666.902 80.4629 667.423 80.5605 667.895 80.7559C668.383 80.9349 668.814 81.2197 669.188 81.6104C669.563 82.001 669.872 82.5137 670.116 83.1484C670.377 83.7832 670.572 84.5563 670.702 85.4678C670.849 86.363 670.922 87.4209 670.922 88.6416ZM697.826 90.5947L697.826 81.1465L690.648 81.1465L690.648 90.5947L682.006 90.5947L682.006 97.2109L690.648 97.2109L690.648 107.025L697.826 107.025L697.826 97.2109L706.371 97.2109L706.371 90.5947L697.826 90.5947Z" fill="#274C5B" fill-opacity="1.000000" fill-rule="evenodd"/>
	<circle id="Background" cx="924.500000" cy="105.500000" r="94.500000" fill="#F1F1F1" fill-opacity="1.000000"/>
	<path id="Background" d="M992.296 24.7002C973.954 9.28857 950.3 0 924.5 0C900.541 0.00927734 876.45 8.09814 856.7 24.7026C838.338 40.0903 825.083 61.772 820.627 87.1865C816.451 110.777 820.234 135.906 833.157 158.239C845.122 178.995 864.172 195.813 888.427 204.615C910.935 212.824 936.339 213.462 960.577 204.613C983.094 196.435 1002.97 180.594 1015.85 158.236C1027.84 137.496 1032.88 112.588 1028.37 87.1826C1024.23 63.5864 1012.08 41.2666 992.296 24.7002ZM859.412 27.9282C877.021 13.1323 899.73 4.21484 924.5 4.21484C947.502 4.22363 970.63 11.9897 989.591 27.9307C1007.22 42.7031 1019.95 63.519 1024.22 87.918C1028.23 110.566 1024.6 134.691 1012.19 156.132C1000.71 176.059 982.417 192.205 959.131 200.655C937.523 208.536 913.134 209.148 889.865 200.654C868.247 192.801 849.169 177.594 836.804 156.129C825.291 136.218 820.453 112.305 824.777 87.9141C828.756 65.2607 840.42 43.8325 859.412 27.9282Z" fill="#7EB693" fill-opacity="1.000000" fill-rule="evenodd"/>
	<path id="Years of Farming" d="M918.98 129.827L921.354 129.827L921.354 128.262L918.98 128.262L918.98 127.629Q918.98 126.759 919.297 126.329Q919.365 126.237 919.449 126.164Q919.769 125.889 920.325 125.889Q921.02 125.889 921.784 126.135L922.329 124.571Q921.583 124.316 920.819 124.241Q920.503 124.21 920.185 124.21Q918.533 124.21 917.724 125.036Q917.719 125.041 917.715 125.045Q916.906 125.872 916.906 127.594L916.906 128.227L915.307 128.86L915.307 129.827L916.906 129.827L916.906 137.983L918.98 137.983L918.98 129.827ZM972.818 124.887Q972.567 125.18 972.567 125.687Q972.567 126.131 972.779 126.419Q972.819 126.473 972.866 126.522Q972.888 126.543 972.911 126.563Q973.214 126.821 973.736 126.821Q974.224 126.821 974.515 126.582Q974.549 126.553 974.58 126.522Q974.638 126.464 974.685 126.398Q974.888 126.115 974.888 125.687Q974.888 125.197 974.647 124.907Q974.616 124.869 974.58 124.834Q974.549 124.803 974.515 124.775Q974.224 124.536 973.736 124.536Q973.214 124.536 972.911 124.794Q972.888 124.813 972.866 124.834Q972.841 124.86 972.818 124.887ZM859.681 125.133L856.64 130.996L853.599 125.133L851.313 125.133L855.576 133.07L855.576 137.983L857.686 137.983L857.686 133L861.966 125.133L859.681 125.133ZM927.91 137.983L929.993 137.983L929.993 132.709L934.836 132.709L934.836 130.925L929.993 130.925L929.993 126.909L935.161 126.909L935.161 125.133L927.91 125.133L927.91 137.983ZM864.617 137.262Q865.818 138.159 867.688 138.159Q868.681 138.159 869.454 138.009Q870.228 137.86 870.983 137.5L870.983 135.821Q870.131 136.199 869.384 136.366Q868.646 136.524 867.784 136.524Q866.684 136.524 866 135.991Q865.869 135.889 865.754 135.768Q865.033 135.003 864.989 133.588L871.467 133.588L871.467 132.472Q871.467 130.646 870.579 129.519Q870.471 129.382 870.351 129.255Q870.094 128.987 869.795 128.78Q868.792 128.086 867.31 128.086Q865.865 128.086 864.851 128.747Q864.409 129.035 864.049 129.449Q864.04 129.459 864.031 129.47Q862.862 130.829 862.862 133.193Q862.862 135.241 863.855 136.515Q863.987 136.685 864.137 136.84Q864.362 137.072 864.617 137.262ZM879.482 136.629L879.896 137.983L881.372 137.983L881.372 131.435Q881.372 129.857 880.583 129.045Q880.507 128.966 880.423 128.895Q879.482 128.086 877.628 128.086Q876.793 128.086 875.853 128.306Q874.912 128.517 874.121 128.93L874.789 130.407Q875.422 130.108 876.107 129.888Q876.188 129.862 876.269 129.84Q876.881 129.668 877.54 129.668Q878.436 129.668 878.868 130.116Q878.876 130.125 878.885 130.134Q879.324 130.591 879.324 131.523L879.324 132.042L877.646 132.094Q875.36 132.165 874.244 132.929Q873.819 133.22 873.556 133.618Q873.128 134.266 873.128 135.197Q873.128 136.419 873.724 137.162Q873.819 137.28 873.928 137.385Q874.004 137.459 874.087 137.525Q874.872 138.159 876.169 138.159Q877.285 138.159 877.997 137.842Q878.709 137.517 879.412 136.629L879.482 136.629ZM890.214 128.174Q889.81 128.086 889.186 128.086Q888.849 128.086 888.529 128.158Q887.995 128.278 887.507 128.596Q887.36 128.693 887.224 128.803Q886.642 129.271 886.25 129.976L886.145 129.976L885.872 128.262L884.255 128.262L884.255 137.983L886.32 137.983L886.32 132.903Q886.32 131.917 886.766 131.212Q886.904 130.994 887.085 130.802Q887.346 130.53 887.659 130.349Q888.276 129.994 889.098 129.994Q889.572 129.994 890.012 130.099L890.214 128.174ZM898.154 136.73Q898.555 136.099 898.555 135.214Q898.555 134.511 898.291 134.01Q898.027 133.5 897.482 133.114Q896.938 132.727 895.733 132.261Q894.301 131.708 893.87 131.391Q893.585 131.178 893.493 130.9Q893.448 130.766 893.448 130.618Q893.448 130.389 893.547 130.217Q893.849 129.686 895.083 129.686Q896.155 129.686 897.729 130.336L898.396 128.781Q897.804 128.512 897.185 128.347Q896.204 128.086 895.153 128.086Q893.422 128.086 892.411 128.781Q891.942 129.102 891.692 129.546Q891.409 130.051 891.409 130.714Q891.409 131.552 891.794 132.138Q891.885 132.277 891.998 132.402Q892.596 133.052 894.274 133.703Q895.136 134.037 895.619 134.3Q896.103 134.564 896.313 134.81Q896.364 134.869 896.402 134.934Q896.524 135.144 896.524 135.425Q896.524 135.733 896.388 135.958Q896.015 136.577 894.617 136.577Q893.141 136.577 891.427 135.786L891.427 137.57Q892.604 138.159 894.547 138.159Q896.48 138.159 897.518 137.403Q897.91 137.113 898.154 136.73ZM912.96 136.723Q914.094 135.399 914.094 133.105Q914.094 131.021 913.086 129.714Q912.98 129.577 912.863 129.449Q912.501 129.047 912.062 128.764Q911.011 128.086 909.523 128.086Q907.764 128.086 906.637 128.93Q906.35 129.145 906.104 129.414Q906.059 129.463 906.016 129.514Q904.892 130.829 904.892 133.105Q904.892 134.625 905.454 135.777Q905.827 136.54 906.412 137.068Q906.71 137.336 907.062 137.543Q907.167 137.605 907.274 137.66Q908.244 138.159 909.471 138.159Q911.155 138.159 912.267 137.361Q912.594 137.126 912.872 136.823Q912.917 136.774 912.96 136.723ZM942.939 136.629L943.353 137.983L944.829 137.983L944.829 131.435Q944.829 129.857 944.04 129.045Q943.964 128.966 943.88 128.895Q942.939 128.086 941.085 128.086Q940.25 128.086 939.31 128.306Q938.369 128.517 937.578 128.93L938.246 130.407Q938.879 130.108 939.564 129.888Q939.645 129.862 939.726 129.84Q940.338 129.668 940.997 129.668Q941.893 129.668 942.325 130.116Q942.333 130.125 942.342 130.134Q942.781 130.591 942.781 131.523L942.781 132.042L941.103 132.094Q938.817 132.165 937.701 132.929Q937.276 133.22 937.013 133.618Q936.585 134.266 936.585 135.197Q936.585 136.419 937.181 137.162Q937.276 137.28 937.385 137.385Q937.461 137.459 937.544 137.525Q938.329 138.159 939.626 138.159Q940.742 138.159 941.454 137.842Q942.166 137.517 942.869 136.629L942.939 136.629ZM953.671 128.174Q953.267 128.086 952.643 128.086Q952.306 128.086 951.986 128.158Q951.453 128.278 950.964 128.596Q950.817 128.693 950.681 128.803Q950.099 129.271 949.707 129.976L949.602 129.976L949.329 128.262L947.712 128.262L947.712 137.983L949.777 137.983L949.777 132.903Q949.777 131.917 950.223 131.212Q950.361 130.994 950.542 130.802Q950.803 130.53 951.116 130.349Q951.733 129.994 952.555 129.994Q953.029 129.994 953.469 130.099L953.671 128.174ZM961.599 137.983L963.673 137.983L963.673 132.833Q963.673 131.277 964.227 130.53Q964.347 130.368 964.497 130.241Q965.047 129.774 965.993 129.774Q966.71 129.774 967.124 130.128Q967.227 130.217 967.312 130.328Q967.742 130.873 967.742 131.989L967.742 137.983L969.808 137.983L969.808 131.646Q969.808 129.844 969.008 128.965Q968.998 128.954 968.987 128.943Q968.194 128.086 966.477 128.086Q965.466 128.086 964.684 128.491Q964.169 128.757 963.807 129.159Q963.618 129.369 963.471 129.616L963.33 129.616Q963.135 129.207 962.832 128.907Q962.002 128.086 960.359 128.086Q959.589 128.086 958.923 128.35Q958.791 128.402 958.663 128.464Q958.145 128.721 957.792 129.123Q957.624 129.313 957.494 129.537L957.389 129.537L957.099 128.262L955.481 128.262L955.481 137.983L957.547 137.983L957.547 133.14Q957.547 131.33 958.101 130.556Q958.243 130.358 958.425 130.211Q958.965 129.774 959.858 129.774Q960.576 129.774 960.989 130.128Q961.092 130.217 961.177 130.328Q961.599 130.873 961.599 131.989L961.599 137.983ZM984.195 137.983L986.27 137.983L986.27 131.646Q986.27 129.835 985.364 128.946Q984.49 128.086 982.771 128.086Q981.791 128.086 980.985 128.461L980.979 128.464Q980.367 128.75 979.966 129.218Q979.837 129.368 979.73 129.537L979.625 129.537L979.335 128.262L977.718 128.262L977.718 137.983L979.783 137.983L979.783 133.14Q979.783 131.321 980.39 130.547Q980.485 130.426 980.598 130.323Q981.202 129.774 982.306 129.774Q983.18 129.774 983.632 130.211Q983.688 130.266 983.738 130.328Q984.195 130.881 984.195 132.006L984.195 137.983ZM997.353 129.396L997.353 128.262L993.986 128.262Q993.758 128.201 993.301 128.148Q992.853 128.086 992.439 128.086Q990.594 128.086 989.592 128.957Q989.348 129.17 989.164 129.427Q988.599 130.215 988.599 131.409Q988.599 132.268 988.953 132.94Q989.005 133.037 989.064 133.131Q989.38 133.617 989.821 133.923Q990.042 134.077 990.295 134.186Q989.688 134.555 989.381 134.933Q989.302 135.03 989.243 135.139Q989.073 135.451 989.073 135.856Q989.073 135.948 989.085 136.039Q989.13 136.371 989.337 136.682Q989.52 136.942 989.767 137.107Q989.887 137.187 990.022 137.245Q989.003 137.482 988.432 138.088Q988.228 138.311 988.098 138.571Q987.869 139.029 987.869 139.6Q987.869 140.297 988.169 140.822Q988.429 141.278 988.915 141.604Q989.961 142.307 991.947 142.307Q994.522 142.307 995.885 141.411Q996.546 140.975 996.886 140.362Q997.247 139.712 997.247 138.862Q997.247 137.911 996.795 137.289Q996.633 137.065 996.412 136.884Q995.577 136.199 993.969 136.199L992.272 136.199Q991.438 136.199 991.121 136.032Q990.953 135.941 990.877 135.8Q990.813 135.683 990.813 135.531Q990.813 135.438 990.832 135.35Q990.925 134.908 991.481 134.564Q991.859 134.634 992.325 134.634Q994.145 134.634 995.182 133.773Q995.546 133.47 995.783 133.088Q996.219 132.383 996.219 131.409Q996.219 130.908 996.069 130.459Q995.92 130.011 995.691 129.704L997.353 129.396ZM972.69 137.983L974.756 137.983L974.756 128.262L972.69 128.262L972.69 137.983ZM991.047 132.791Q990.603 132.301 990.603 131.409Q990.603 130.433 991.06 129.923Q991.122 129.856 991.191 129.797Q991.645 129.414 992.422 129.414Q993.208 129.414 993.642 129.804Q993.709 129.864 993.767 129.932Q994.215 130.442 994.215 131.391Q994.215 132.413 993.705 132.89Q993.259 133.307 992.422 133.307Q991.652 133.307 991.192 132.93Q991.127 132.876 991.068 132.815Q991.057 132.803 991.047 132.791ZM866.112 129.962Q866.614 129.651 867.31 129.651Q868.03 129.651 868.525 129.985Q868.706 130.108 868.856 130.275Q869.419 130.89 869.437 132.094L865.024 132.094Q865.139 130.899 865.728 130.275Q865.903 130.092 866.112 129.962ZM908.059 136.051Q907.019 135.282 907.019 133.105Q907.019 131.497 907.599 130.635Q907.751 130.413 907.951 130.248Q908.524 129.774 909.488 129.774Q910.371 129.774 910.94 130.197Q911.967 130.961 911.967 133.105Q911.967 135.299 910.922 136.063Q910.363 136.471 909.506 136.471Q908.627 136.471 908.059 136.051ZM878.414 136.121Q877.78 136.577 876.819 136.577Q876.046 136.577 875.659 136.225Q875.585 136.156 875.524 136.075Q875.272 135.739 875.272 135.214Q875.272 134.64 875.543 134.256Q875.695 134.042 875.932 133.887Q876.6 133.448 878.059 133.395L879.307 133.342L879.307 134.186Q879.307 135.079 878.881 135.662Q878.767 135.818 878.621 135.953Q878.522 136.044 878.414 136.121ZM941.871 136.121Q941.237 136.577 940.276 136.577Q939.503 136.577 939.116 136.225Q939.042 136.156 938.982 136.075Q938.729 135.739 938.729 135.214Q938.729 134.64 939 134.256Q939.152 134.042 939.389 133.887Q940.057 133.448 941.516 133.395L942.764 133.342L942.764 134.186Q942.764 135.079 942.338 135.662Q942.224 135.818 942.078 135.953Q941.979 136.044 941.871 136.121ZM989.838 140.039Q989.715 139.798 989.715 139.495Q989.715 139.078 989.892 138.761Q990.018 138.536 990.233 138.361Q990.761 137.948 991.648 137.948L993.213 137.948Q994.443 137.948 994.892 138.211Q995.041 138.3 995.141 138.428Q995.349 138.691 995.349 139.117Q995.349 139.375 995.262 139.601Q995.082 140.073 994.522 140.4Q993.696 140.883 992.009 140.883Q990.919 140.883 990.312 140.523Q989.987 140.326 989.838 140.039Z" fill="#274C5B" fill-opacity="1.000000" fill-rule="evenodd"/>
	<path id="25+" d="M909.021 110.59L909.021 104.657L894.397 104.657L899.769 98.5537C901.038 97.2842 902.177 96.0798 903.187 94.9404C904.196 93.7848 905.058 92.6536 905.774 91.5469C906.491 90.4401 907.036 89.3252 907.41 88.2021C907.801 87.0791 907.996 85.9154 907.996 84.7109Q907.996 81.5127 906.653 79.2422C905.758 77.7285 904.44 76.5648 902.698 75.751C900.957 74.9372 898.8 74.5303 896.229 74.5303Q892.469 74.5303 889.661 76.1416C887.789 77.1995 886.333 78.6237 885.291 80.4141Q884.796 81.2571 884.458 82.1589Q883.729 84.1038 883.729 86.3223L891.395 86.3223Q891.395 84.6377 891.956 83.3193C892.33 82.4242 892.867 81.7243 893.567 81.2197C894.267 80.7152 895.105 80.4629 896.082 80.4629Q897.449 80.4629 898.401 81.0488C899.036 81.4395 899.516 82.001 899.842 82.7334Q900.354 83.832 900.354 85.4189C900.354 86.07 900.208 86.7861 899.915 87.5674C899.622 88.3324 899.15 89.1868 898.499 90.1309C897.864 91.0749 897.01 92.1654 895.936 93.4023L884.461 105.561L884.461 110.59L909.021 110.59ZM914.075 93.1338L920.13 94.5742C920.521 94.1022 921.066 93.6628 921.766 93.2559C922.466 92.849 923.434 92.6455 924.671 92.6455Q926.087 92.6455 927.088 93.085C927.771 93.3616 928.333 93.7686 928.772 94.3057C929.212 94.8265 929.537 95.4613 929.749 96.21C929.961 96.9424 930.066 97.7725 930.066 98.7002C930.066 99.5954 929.985 100.434 929.822 101.215C929.659 101.996 929.399 102.68 929.041 103.266Q928.785 103.705 928.437 104.053Q928.089 104.401 927.649 104.657C927.063 104.983 926.347 105.146 925.501 105.146C924.622 105.146 923.849 104.966 923.182 104.608C922.514 104.234 921.985 103.713 921.595 103.046C921.204 102.362 920.968 101.549 920.887 100.604L913.27 100.604Q913.293 102.997 914.255 104.921Q914.275 104.96 914.295 104.999C914.979 106.301 915.898 107.408 917.054 108.319Q917.289 108.499 917.533 108.668Q919.106 109.757 921.009 110.37C922.474 110.842 923.987 111.078 925.55 111.078C927.617 111.078 929.415 110.753 930.945 110.102C932.475 109.451 933.737 108.572 934.729 107.465C935.739 106.342 936.487 105.072 936.976 103.656C937.464 102.224 937.708 100.727 937.708 99.1641Q937.708 96.332 936.976 94.1104C936.504 92.6292 935.796 91.3841 934.852 90.375C933.924 89.3496 932.784 88.5684 931.434 88.0312C930.083 87.4941 928.536 87.2256 926.795 87.2256C925.623 87.2256 924.565 87.3884 923.621 87.7139C922.677 88.0231 921.985 88.3079 921.546 88.5684L922.4 81.0732L936.512 81.0732L936.512 75.043L916.15 75.043L914.075 93.1338ZM956.897 90.5947L956.897 81.1465L949.72 81.1465L949.72 90.5947L941.077 90.5947L941.077 97.2109L949.72 97.2109L949.72 107.025L956.897 107.025L956.897 97.2109L965.442 97.2109L965.442 90.5947L956.897 90.5947Z" fill="#274C5B" fill-opacity="1.000000" fill-rule="evenodd"/>
</svg>
