<svg width="63.256348" height="21.374268" viewBox="0 0 63.2563 21.3743" fill="none" xmlns="http://www.w3.org/2000/svg" xmlns:xlink="http://www.w3.org/1999/xlink">
	<desc>
			Created with Pixso.
	</desc>
	<defs/>
	<path id="Vector" d="M22.3306 10.7517C22.3306 4.81421 17.3311 0 11.165 0C4.99951 0 0 4.81421 0 10.7517C0 16.1179 4.08252 20.5659 9.4209 21.3733L9.4209 13.8606L6.58496 13.8606L6.58496 10.7517L9.4209 10.7517L9.4209 8.38306C9.4209 5.68872 11.0879 4.19946 13.6382 4.19946C14.8599 4.19946 16.1377 4.40967 16.1377 4.40967L16.1377 7.05591L14.729 7.05591C13.3428 7.05591 12.9092 7.88428 12.9092 8.73584L12.9092 10.7517L16.0059 10.7517L15.5112 13.8606L12.9097 13.8606L12.9097 21.3743C18.248 20.5674 22.3306 16.1194 22.3306 10.7517Z" fill="#274C5B" fill-opacity="1.000000" fill-rule="evenodd"/>
	<path id="Vector" d="M63.2563 3.38501C62.3584 3.7749 61.4092 4.03174 60.4375 4.14746C61.4585 3.54956 62.2266 2.59961 62.5972 1.47583C61.6318 2.04028 60.5771 2.43652 59.479 2.64722C59.0161 2.16235 58.46 1.77686 57.8438 1.51367C57.2275 1.25073 56.5645 1.11572 55.8945 1.11694C53.1821 1.11694 50.9868 3.28027 50.9868 5.94702C50.9849 6.31787 51.0273 6.68774 51.1133 7.04858C49.1685 6.95728 47.2637 6.46118 45.5215 5.59155C43.7788 4.72217 42.2373 3.49854 40.9951 1.99927C40.5591 2.73389 40.3286 3.57227 40.3276 4.42676C40.3276 6.10132 41.2012 7.58179 42.5205 8.44922C41.7388 8.43066 40.9731 8.22363 40.2886 7.84595L40.2886 7.90576C40.2886 10.2485 41.9834 12.1975 44.2266 12.6411C43.8047 12.7534 43.3701 12.8105 42.9336 12.8105C42.6235 12.811 42.3145 12.781 42.0107 12.7209C42.6343 14.6399 44.4492 16.0354 46.5991 16.0754C44.8521 17.4216 42.7075 18.1494 40.502 18.144C40.1104 18.1433 39.7192 18.1201 39.3306 18.0742C41.5742 19.5068 44.1821 20.2646 46.8442 20.2573C55.8843 20.2573 60.8228 12.8953 60.8228 6.51025C60.8228 6.30078 60.8174 6.09155 60.8071 5.88721C61.7656 5.20532 62.5952 4.35791 63.2563 3.38501Z" fill="#274C5B" fill-opacity="1.000000" fill-rule="nonzero"/>
</svg>
