<svg width="285.000000" height="60.000000" viewBox="0 0 285 60" fill="none" xmlns="http://www.w3.org/2000/svg" xmlns:xlink="http://www.w3.org/1999/xlink">
	<desc>
			Created with Pixso.
	</desc>
	<defs/>
	<circle id="Ellipse" cx="30.000000" cy="30.000000" r="30.000000" fill="#EFF6F1" fill-opacity="1.000000"/>
	<path id="Vector" d="M33.6587 22.5469C34.7231 22.5508 35.7432 22.959 36.4956 23.6836C37.2485 24.4082 37.6729 25.3906 37.6763 26.416L37.6763 34.1523C37.6729 35.1777 37.2485 36.1602 36.4956 36.8848C35.7432 37.6094 34.7231 38.0186 33.6587 38.0215L25.6245 38.0215C24.5596 38.0186 23.5396 37.6094 22.7871 36.8848C22.0342 36.1602 21.6099 35.1777 21.6069 34.1523L21.6069 26.416C21.6099 25.3906 22.0342 24.4082 22.7871 23.6836C23.5396 22.959 24.5596 22.5508 25.6245 22.5469L33.6587 22.5469ZM33.6587 21L25.6245 21C22.5308 21 20 23.4375 20 26.416L20 34.1523C20 37.1318 22.5308 39.5684 25.6245 39.5684L33.6587 39.5684C36.752 39.5684 39.2827 37.1318 39.2827 34.1523L39.2827 26.416C39.2827 23.4375 36.752 21 33.6587 21Z" fill="#274C5B" fill-opacity="1.000000" fill-rule="nonzero"/>
	<path id="Vector" d="M34.8638 26.417C34.6255 26.417 34.3926 26.3486 34.1943 26.2217C33.9961 26.0938 33.8418 25.9121 33.7505 25.7002C33.6592 25.4883 33.6353 25.2549 33.6816 25.0303C33.7285 24.8047 33.8433 24.5977 34.0117 24.4355C34.1802 24.2734 34.395 24.1631 34.6289 24.1182C34.8623 24.0732 35.105 24.0967 35.3252 24.1836C35.5454 24.2715 35.7334 24.4209 35.8657 24.6113C35.998 24.8027 36.0688 25.0264 36.0688 25.2559C36.0693 25.4092 36.0386 25.5596 35.978 25.7012C35.9175 25.8418 35.8286 25.9697 35.7168 26.0771C35.605 26.1855 35.4717 26.2705 35.3252 26.3291C35.1792 26.3877 35.022 26.417 34.8638 26.417ZM29.6416 27.1904C30.2773 27.1904 30.8984 27.3721 31.4272 27.7119C31.9556 28.0518 32.3677 28.5352 32.6108 29.1006C32.854 29.666 32.9175 30.2881 32.7935 30.8887C32.6699 31.4893 32.3638 32.041 31.9141 32.4736C31.4648 32.9062 30.8921 33.2012 30.2686 33.3203C29.645 33.4404 28.999 33.3789 28.4116 33.1445C27.8242 32.9102 27.3223 32.5137 26.9692 32.0049C26.6162 31.4951 26.4277 30.8975 26.4277 30.2852C26.4287 29.4648 26.7676 28.6777 27.3701 28.0977C27.9727 27.5176 28.7896 27.1914 29.6416 27.1904ZM29.6416 25.6426C28.688 25.6426 27.7559 25.915 26.9634 26.4258C26.1704 26.9355 25.5527 27.6602 25.188 28.5088C24.8228 29.3564 24.7275 30.29 24.9136 31.1904C25.0996 32.0908 25.5586 32.918 26.2329 33.5674C26.9067 34.2168 27.7661 34.6592 28.7012 34.8379C29.6362 35.0176 30.6055 34.9248 31.4863 34.5742C32.3672 34.2227 33.1201 33.6279 33.6499 32.8643C34.1797 32.1006 34.4624 31.2031 34.4624 30.2852C34.4624 29.0537 33.9541 27.873 33.0503 27.0029C32.146 26.1318 30.9199 25.6426 29.6416 25.6426Z" fill="#274C5B" fill-opacity="1.000000" fill-rule="nonzero"/>
	<circle id="Ellipse" cx="105.000000" cy="30.000000" r="30.000000" fill="#EFF6F1" fill-opacity="1.000000"/>
	<path id="Vector" d="M114.283 30.2842C114.283 25.1572 109.966 21 104.642 21C99.3169 21 95 25.1572 95 30.2842C95 34.918 98.5249 38.7588 103.135 39.4561L103.135 32.9688L100.687 32.9688L100.687 30.2842L103.135 30.2842L103.135 28.2393C103.135 25.9121 104.575 24.626 106.777 24.626C107.832 24.626 108.935 24.8076 108.935 24.8076L108.935 27.0928L107.719 27.0928C106.522 27.0928 106.147 27.8086 106.147 28.5439L106.147 30.2842L108.821 30.2842L108.394 32.9688L106.148 32.9688L106.148 39.457C110.758 38.7607 114.283 34.9199 114.283 30.2842Z" fill="#274C5B" fill-opacity="1.000000" fill-rule="evenodd"/>
	<circle id="Ellipse" cx="180.000000" cy="30.000000" r="30.000000" fill="#EFF6F1" fill-opacity="1.000000"/>
	<path id="Vector" d="M190.66 23.958C189.885 24.2949 189.065 24.5166 188.226 24.6172C189.108 24.1006 189.771 23.2803 190.091 22.3096C189.257 22.7979 188.347 23.1396 187.398 23.3213C186.999 22.9023 186.519 22.5703 185.987 22.3428C185.455 22.1152 184.882 21.999 184.303 22C181.961 22 180.065 23.8682 180.065 26.1709C180.063 26.4912 180.101 26.8105 180.175 27.1221C178.495 27.043 176.851 26.6152 175.346 25.8643C173.841 25.1133 172.51 24.0566 171.437 22.7617C171.061 23.3965 170.862 24.1201 170.861 24.8584C170.861 26.3047 171.615 27.583 172.755 28.3311C172.08 28.3154 171.418 28.1367 170.827 27.8105L170.827 27.8623C170.827 29.8857 172.291 31.5684 174.228 31.9512C173.863 32.0488 173.488 32.0977 173.111 32.0977C172.844 32.0977 172.577 32.0723 172.314 32.0205C172.853 33.6777 174.42 34.8828 176.276 34.917C174.768 36.0791 172.916 36.708 171.012 36.7031C170.673 36.7031 170.336 36.6826 170 36.6426C171.938 37.8799 174.189 38.5342 176.488 38.5283C184.294 38.5283 188.559 32.1709 188.559 26.6572C188.559 26.4766 188.554 26.2959 188.545 26.1191C189.373 25.5303 190.089 24.7988 190.66 23.958Z" fill="#274C5B" fill-opacity="1.000000" fill-rule="nonzero"/>
	<circle id="Ellipse" cx="255.000000" cy="30.000000" r="30.000000" fill="#EFF6F1" fill-opacity="1.000000"/>
	<path id="Vector" d="M254.797 20C249.387 20 245 24.3848 245 29.792C245 33.8008 247.414 37.2461 250.865 38.7627C250.838 38.0811 250.86 37.2588 251.036 36.5156C251.224 35.7197 252.295 31.1777 252.295 31.1777C252.295 31.1777 251.98 30.5527 251.98 29.6309C251.98 28.1787 252.82 27.0947 253.87 27.0947C254.762 27.0947 255.19 27.7637 255.19 28.5635C255.19 29.46 254.617 30.7979 254.324 32.0391C254.08 33.0801 254.845 33.9238 255.873 33.9238C257.727 33.9238 258.978 31.541 258.978 28.7168C258.978 26.5703 257.53 24.9658 254.901 24.9658C251.932 24.9658 250.078 27.1826 250.078 29.6572C250.078 30.5088 250.331 31.1123 250.725 31.5762C250.904 31.79 250.931 31.8779 250.865 32.1221C250.817 32.3018 250.712 32.7344 250.664 32.9092C250.598 33.1582 250.397 33.2461 250.174 33.1543C248.805 32.5947 248.167 31.0996 248.167 29.4121C248.167 26.6318 250.515 23.2959 255.168 23.2959C258.908 23.2959 261.37 26.002 261.37 28.9053C261.37 32.7471 259.231 35.6152 256.083 35.6152C255.024 35.6152 254.031 35.043 253.69 34.3955C253.69 34.3955 253.122 36.6514 252.999 37.0889C252.793 37.8447 252.387 38.5967 252.015 39.1865C252.917 39.4521 253.852 39.5879 254.792 39.5889C260.202 39.5889 264.589 35.2041 264.589 29.7969C264.589 24.3887 260.207 20 254.797 20Z" fill="#274C5B" fill-opacity="1.000000" fill-rule="nonzero"/>
</svg>
